<svg xmlns="http://www.w3.org/2000/svg" xmlns:xlink="http://www.w3.org/1999/xlink" width="500" zoomAndPan="magnify" viewBox="0 0 375 374.999991" height="500" preserveAspectRatio="xMidYMid meet" version="1.0"><defs><g/><clipPath id="64b3cdf816"><path d="M 75 0 L 300 0 C 341.421875 0 375 33.578125 375 75 L 375 300 C 375 341.421875 341.421875 375 300 375 L 75 375 C 33.578125 375 0 341.421875 0 300 L 0 75 C 0 33.578125 33.578125 0 75 0 Z M 75 0 " clip-rule="nonzero"/></clipPath></defs><rect x="-37.5" width="450" fill="#ffffff" y="-37.499999" height="449.999989" fill-opacity="0"/><rect x="-37.5" width="450" fill="#ffffff" y="-37.499999" height="449.999989" fill-opacity="0"/><g clip-path="url(#64b3cdf816)"><rect x="-37.5" width="450" fill="#ff3131" y="-37.499999" height="449.999989" fill-opacity="1"/></g><g fill="#ffffff" fill-opacity="1"><g transform="translate(62.405884, 302.772862)"><g><path d="M 31.265625 0 L 31.265625 -44.1875 L 60.4375 -44.1875 L 60.4375 -177.5625 L 31.265625 -177.5625 L 31.265625 -221.328125 L 110.671875 -221.328125 L 122.75 -171.53125 C 130.675781 -190.5625 140.785156 -204.726562 153.078125 -214.03125 C 165.378906 -223.34375 180.421875 -228 198.203125 -228 C 205.703125 -228 212.367188 -227.410156 218.203125 -226.234375 C 224.046875 -225.054688 229.535156 -223.421875 234.671875 -221.328125 L 214.671875 -166.9375 C 210.640625 -168.050781 206.609375 -168.882812 202.578125 -169.4375 C 198.546875 -170 194.097656 -170.28125 189.234375 -170.28125 C 174.785156 -170.28125 162.109375 -164.375 151.203125 -152.5625 C 140.296875 -140.75 131.992188 -125.742188 126.296875 -107.546875 L 126.296875 -44.1875 L 170.0625 -44.1875 L 170.0625 0 Z M 181.109375 -128.796875 L 181.109375 -193.40625 L 190.90625 -221.328125 L 234.671875 -221.328125 L 222.375 -128.796875 Z M 181.109375 -128.796875 "/></g></g></g></svg>